<svg width="207" height="201" viewBox="0 0 207 201" fill="none" xmlns="http://www.w3.org/2000/svg">
<path d="M142.689 39.2196L207 78.4391V201L142.689 154.917V39.2196Z" fill="black"/>
<path d="M56.2717 39.2196L-0.000118256 78.2014V200.02L56.2717 154.216V39.2196Z" fill="black"/>
<rect x="22.1068" width="162.786" height="25.4927" fill="black"/>
<path d="M79.533 7.954C79.533 7.282 79.659 6.659 79.911 6.085C80.177 5.511 80.534 5.014 80.982 4.594C81.43 4.174 81.955 3.845 82.557 3.607C83.159 3.369 83.817 3.25 84.531 3.25C85.217 3.25 85.861 3.369 86.463 3.607C87.079 3.845 87.611 4.174 88.059 4.594C88.507 5.014 88.864 5.511 89.13 6.085C89.396 6.659 89.529 7.282 89.529 7.954C89.529 8.64 89.396 9.27 89.13 9.844C88.864 10.418 88.507 10.915 88.059 11.335C87.611 11.755 87.079 12.084 86.463 12.322C85.861 12.546 85.217 12.658 84.531 12.658C83.817 12.658 83.159 12.546 82.557 12.322C81.955 12.084 81.43 11.755 80.982 11.335C80.534 10.915 80.177 10.418 79.911 9.844C79.659 9.27 79.533 8.64 79.533 7.954ZM83.985 22.129V14.422H86.274V16.501H92.658V14.422H94.926V22.129H83.985ZM92.658 2.788H94.926V13.666H92.658V2.788ZM81.822 7.954C81.822 8.36 81.892 8.731 82.032 9.067C82.172 9.389 82.361 9.669 82.599 9.907C82.851 10.131 83.138 10.313 83.46 10.453C83.796 10.579 84.153 10.642 84.531 10.642C85.273 10.642 85.91 10.397 86.442 9.907C86.974 9.403 87.24 8.752 87.24 7.954C87.24 7.17 86.974 6.526 86.442 6.022C85.91 5.518 85.273 5.266 84.531 5.266C83.761 5.266 83.117 5.518 82.599 6.022C82.081 6.526 81.822 7.17 81.822 7.954ZM92.658 20.218V18.391H86.274V20.218H92.658ZM101.686 6.106V13.813C102.498 13.813 103.387 13.764 104.353 13.666C105.319 13.568 106.25 13.428 107.146 13.246L107.398 15.115C106.222 15.353 104.955 15.535 103.597 15.661C102.239 15.773 100.846 15.815 99.4184 15.787V4.174H105.991V6.106H101.686ZM108.385 3.103H110.569V8.584H112.522V2.788H114.706V21.163H112.522V10.495H110.569V20.491H108.385V3.103Z" fill="white"/>
<path d="M82.3979 50.9855H108.524L142.689 154.917H56.2717L82.3979 50.9855Z" fill="#D9D9D9"/>
<ellipse cx="12.0582" cy="129.424" rx="4.01942" ry="3.92195" fill="white"/>
<ellipse cx="194.942" cy="129.424" rx="4.01942" ry="3.92195" fill="white"/>
<path d="M93.4514 118.639H97.4708L98.4757 150.995H92.4465L93.4514 118.639Z" fill="white"/>
<path d="M94.7912 84.322H96.8009L97.4708 111.776H93.4514L94.7912 84.322Z" fill="white"/>
<path d="M95.1262 60.7903H96.1311L96.466 78.4391H94.4563L95.1262 60.7903Z" fill="white"/>
</svg>
