<svg width="226" height="213" viewBox="0 0 226 213" fill="none" xmlns="http://www.w3.org/2000/svg">
<path d="M0 20C0 8.95431 8.95431 0 20 0H120V72H0V20Z" fill="black"/>
<rect x="47" y="72" width="25" height="141" fill="black"/>
<path d="M15 208H103V213H15V208Z" fill="black"/>
<path d="M33.2 35.05H33.825C35.325 35.05 36.3833 34.8667 37 34.5C37.7833 34.05 38.175 33.225 38.175 32.025C38.175 30.0583 37.25 29.075 35.4 29.075H33.2V35.05ZM30.475 26.525H35.175C37.0083 26.525 38.4083 26.9833 39.375 27.9C40.4083 28.8333 40.925 30.2083 40.925 32.025C40.925 33.7583 40.3583 35.1417 39.225 36.175C38.1417 37.125 36.7333 37.6 35 37.6H33.2V45.175H30.475V26.525ZM51.523 28.725C49.7897 28.725 48.423 29.4583 47.423 30.925C46.5064 32.2417 46.048 33.875 46.048 35.825C46.048 37.7917 46.5064 39.4333 47.423 40.75C48.423 42.2167 49.7897 42.95 51.523 42.95C53.2564 42.95 54.623 42.2167 55.623 40.75C56.523 39.4333 56.973 37.7917 56.973 35.825C56.973 33.8917 56.523 32.2583 55.623 30.925C54.623 29.4583 53.2564 28.725 51.523 28.725ZM51.523 26.2C54.1897 26.2 56.2647 27.1917 57.748 29.175C59.0647 30.9417 59.7147 33.1583 59.698 35.825C59.6647 38.7417 58.9814 41.0417 57.648 42.725C56.198 44.5583 54.1564 45.475 51.523 45.475C48.9064 45.475 46.8564 44.5583 45.373 42.725C44.0064 41.0083 43.323 38.7083 43.323 35.825C43.323 33.125 43.973 30.9 45.273 29.15C46.7397 27.1833 48.823 26.2 51.523 26.2ZM72.2508 29.4C71.4174 28.9833 70.3008 28.775 68.9008 28.775C66.7341 28.775 65.6508 29.575 65.6508 31.175C65.6508 31.9417 66.3258 32.75 67.6758 33.6C68.7924 34.3167 69.6674 34.8833 70.3008 35.3C70.9341 35.7167 71.3174 35.9917 71.4508 36.125C72.8008 37.3083 73.4758 38.675 73.4758 40.225C73.4758 41.9583 72.8091 43.3167 71.4758 44.3C70.3424 45.1333 68.9841 45.55 67.4008 45.55C65.8174 45.55 64.3674 45.2583 63.0508 44.675L63.3758 41.9C64.6258 42.6 66.0008 42.95 67.5008 42.95C69.7174 42.95 70.8258 41.975 70.8258 40.025C70.8258 39.2583 70.1508 38.425 68.8008 37.525C67.5841 36.7083 66.6591 36.0833 66.0258 35.65C65.4091 35.2167 65.0758 34.9833 65.0258 34.95C63.6924 33.8 63.0258 32.5417 63.0258 31.175C63.0258 29.625 63.6258 28.3833 64.8258 27.45C65.9091 26.6167 67.2758 26.2 68.9258 26.2C70.2924 26.2 71.5508 26.4167 72.7008 26.85L72.2508 29.4ZM88.2988 29.05H83.2238V45.075H80.4988V29.05H75.4488V26.575H88.2988V29.05Z" fill="white"/>
<path d="M180.409 36.6628L225.337 57.2481L211.591 87.2497L166.663 66.6644L180.409 36.6628Z" fill="#D9D9D9" stroke="black"/>
<path d="M224.213 57.3017V57.3017C224.124 56.7567 223.61 56.3872 223.065 56.4764L194.311 61.1839L194.472 62.1708L224.213 57.3017Z" fill="black"/>
<g filter="url(#filter0_d_35_68)">
<path d="M194.412 62.1302L195.289 61.6497L181.834 37.0942C181.569 36.6098 180.961 36.4323 180.477 36.6977V36.6977L194.412 62.1302Z" fill="black"/>
</g>
<circle cx="195" cy="62" r="2.5" fill="#D9D9D9" stroke="black"/>
<rect x="113" y="68.0134" width="6" height="55" transform="rotate(-30.1477 113 68.0134)" fill="black"/>
<path d="M136.329 36.6584C135.588 37.0288 135.288 37.9299 135.658 38.6708L141.696 50.7456C142.066 51.4866 142.967 51.7869 143.708 51.4164C144.449 51.0459 144.75 50.1449 144.379 49.4039L139.012 38.6708L149.746 33.3043C150.487 32.9338 150.787 32.0328 150.416 31.2918C150.046 30.5508 149.145 30.2505 148.404 30.621L136.329 36.6584ZM158.474 43.577L137.474 36.577L136.526 39.423L157.526 46.423L158.474 43.577Z" fill="black"/>
<defs>
<filter id="filter0_d_35_68" x="176.477" y="36.5745" width="22.8121" height="33.5557" filterUnits="userSpaceOnUse" color-interpolation-filters="sRGB">
<feFlood flood-opacity="0" result="BackgroundImageFix"/>
<feColorMatrix in="SourceAlpha" type="matrix" values="0 0 0 0 0 0 0 0 0 0 0 0 0 0 0 0 0 0 127 0" result="hardAlpha"/>
<feOffset dy="4"/>
<feGaussianBlur stdDeviation="2"/>
<feComposite in2="hardAlpha" operator="out"/>
<feColorMatrix type="matrix" values="0 0 0 0 0 0 0 0 0 0 0 0 0 0 0 0 0 0 0.25 0"/>
<feBlend mode="normal" in2="BackgroundImageFix" result="effect1_dropShadow_35_68"/>
<feBlend mode="normal" in="SourceGraphic" in2="effect1_dropShadow_35_68" result="shape"/>
</filter>
</defs>
</svg>
